<svg id="Layer_1" data-name="Layer 1" xmlns="http://www.w3.org/2000/svg" viewBox="0 0 14 14"><defs><style>.cls-1{fill:#888}</style></defs><title>check-box-16</title><path class="cls-1" d="M13.16.84a2.76 2.76 0 0 0-2-.84h-8.3a2.76 2.76 0 0 0-2 .84 2.76 2.76 0 0 0-.84 2v8.27a2.76 2.76 0 0 0 .84 2 2.76 2.76 0 0 0 2 .84h8.27A2.87 2.87 0 0 0 14 11.14V2.86a2.76 2.76 0 0 0-.84-2.02zm-.43 10.3a1.59 1.59 0 0 1-1.59 1.59H2.86a1.53 1.53 0 0 1-1.12-.47 1.53 1.53 0 0 1-.47-1.12V2.86a1.53 1.53 0 0 1 .47-1.12 1.53 1.53 0 0 1 1.12-.47h8.27a1.53 1.53 0 0 1 1.12.47 1.53 1.53 0 0 1 .47 1.12v8.27z"/></svg>