<svg id="Layer_1" data-name="Layer 1" xmlns="http://www.w3.org/2000/svg" viewBox="0 0 18 18"><defs><style>.cls-1{fill:#fff}</style></defs><title>deliver-orange</title><path class="cls-1" d="M4.62 16.59H2.13a.71.71 0 0 1-.56-.27.73.73 0 0 1-.15-.62 7.77 7.77 0 0 1 7.4-6.15h.36a7.7 7.7 0 0 1 2.54.49.7.7 0 1 0 .49-1.32l-.35-.12a4.78 4.78 0 1 0-5.72 0A9.14 9.14 0 0 0 0 15.42 2.14 2.14 0 0 0 2.13 18h2.49a.7.7 0 1 0 0-1.41zm1-11.81a3.38 3.38 0 1 1 3.54 3.37h-.32a3.38 3.38 0 0 1-3.22-3.37z"/><path class="cls-1" d="M17.46 12.12A1.89 1.89 0 0 0 15.73 11h-2.2a1.86 1.86 0 0 0-1.76 1.19c0 .1-.08.22-.13.36H7a.7.7 0 0 0-.5.21L5.33 14a.7.7 0 0 0 0 1l1.23 1.25a.7.7 0 0 0 .5.21h2.29a.7.7 0 0 0 0-1.41h-2l-.54-.55.53-.5h4.83a.7.7 0 0 0 .68-.54 5.81 5.81 0 0 1 .23-.72.46.46 0 0 1 .45-.29h2.19a.48.48 0 0 1 .45.28 4.54 4.54 0 0 1 .42 1.79 4.68 4.68 0 0 1-.41 1.82.48.48 0 0 1-.44.29h-2.22a.5.5 0 0 1-.45-.31 4.67 4.67 0 0 1-.22-.7.7.7 0 1 0-1.37.33 6.05 6.05 0 0 0 .29.9A1.9 1.9 0 0 0 13.52 18h2.22a1.89 1.89 0 0 0 1.73-1.13 6.09 6.09 0 0 0 .53-2.39 6 6 0 0 0-.54-2.36z"/><circle class="cls-1" cx="15.15" cy="14.48" r=".7"/></svg>