<svg data-name="Layer 1" xmlns="http://www.w3.org/2000/svg" viewBox="0 0 18 18"><title>driller orange</title><path d="M14.17 18a.62.62 0 0 1-.3-.08L9 15.24l-4.87 2.68a.62.62 0 0 1-.68-.05.69.69 0 0 1-.26-.66l.93-5.68-3.94-4a.69.69 0 0 1-.18-.7.65.65 0 0 1 .52-.46L6 5.54 8.43.37a.63.63 0 0 1 1.15 0L12 5.54l5.44.83a.65.65 0 0 1 .52.46.69.69 0 0 1-.16.69l-3.94 4 .93 5.68a.69.69 0 0 1-.26.66.62.62 0 0 1-.36.14zM2 7.5l3.25 3.32a.69.69 0 0 1 .18.59l-.74 4.69 4-2.21a.62.62 0 0 1 .6 0l4 2.21-.77-4.69a.69.69 0 0 1 .18-.59L16 7.5l-4.49-.68a.64.64 0 0 1-.51-.37L9 2.19 7 6.45a.64.64 0 0 1-.48.37z"/></svg>