<svg data-name="Layer 1" xmlns="http://www.w3.org/2000/svg" viewBox="0 0 19.54 11.17"><title>wallet-orange copy 2</title><path d="M19.47 10.08L19.4 10a10.14 10.14 0 0 0-1.95-2.3q-.65-.62-.83-.84a.78.78 0 0 1-.19-.86 7.69 7.69 0 0 1 .92-1.33L18 3.8q1.76-2.34 1.53-3l-.05-.1a.6.6 0 0 0-.32-.17 1.6 1.6 0 0 0-.65 0h-2.93a.38.38 0 0 0-.2 0h-.18a.45.45 0 0 0-.2.2.7.7 0 0 0-.1.18 16.64 16.64 0 0 1-1.05 2.29q-.38.63-.69 1.1a5.27 5.27 0 0 1-.53.68 3.7 3.7 0 0 1-.39.35q-.17.13-.26.11h-.17a.68.68 0 0 1-.23-.25 1.12 1.12 0 0 1-.12-.4V1.34a2.35 2.35 0 0 0 0-.46 1.59 1.59 0 0 0-.11-.33.55.55 0 0 0-.21-.24 1.18 1.18 0 0 0-.34-.14A6.78 6.78 0 0 0 9.42 0 6.68 6.68 0 0 0 7 .25a1.37 1.37 0 0 0-.39.31q-.2.22-.07.24a1.25 1.25 0 0 1 .87.44l.06.12a2 2 0 0 1 .14.47 4.73 4.73 0 0 1 .09.74 7.93 7.93 0 0 1 0 1.27q-.05.53-.1.83a1.65 1.65 0 0 1-.14.48 2 2 0 0 1-.12.22l-.05.05a.76.76 0 0 1-.29.05.65.65 0 0 1-.35-.14 2.44 2.44 0 0 1-.42-.39 5.24 5.24 0 0 1-.49-.7q-.27-.45-.57-1.06L5 2.88q-.15-.29-.42-.83T4.14 1a.67.67 0 0 0-.25-.33h-.05L3.68.56 3.44.49.65.51A.71.71 0 0 0 .07.7L0 .77a.33.33 0 0 0 0 .16.81.81 0 0 0 .06.28Q.67 2.64 1.39 4t1.25 2.12q.53.82 1.08 1.54t.73.93l.28.31.27.24a6 6 0 0 0 .72.59 12.25 12.25 0 0 0 1 .67 5.69 5.69 0 0 0 1.34.54 4.63 4.63 0 0 0 1.49.17h1.17a.81.81 0 0 0 .54-.22v-.05a.68.68 0 0 0 .08-.19 1 1 0 0 0 0-.28 3.36 3.36 0 0 1 .07-.79 2.08 2.08 0 0 1 .27-.58 1.3 1.3 0 0 1 .22-.3.89.89 0 0 1 .17-.15h.08a.65.65 0 0 1 .58.16 3.38 3.38 0 0 1 .62.59q.29.35.7.79a4.8 4.8 0 0 0 .71.65l.2.12a2.48 2.48 0 0 0 .53.22 1.14 1.14 0 0 0 .57.05h2.61a1.18 1.18 0 0 0 .6-.13.51.51 0 0 0 .25-.28.79.79 0 0 0 0-.35 1.28 1.28 0 0 0-.05-.29z"/></svg>