<svg id="Layer_1" data-name="Layer 1" xmlns="http://www.w3.org/2000/svg" viewBox="0 0 16.33 18.7"><defs><style>.cls-1{fill:none}.cls-2{clip-path:url(#clip-path)}</style><clipPath id="clip-path"><path class="cls-1" d="M0 0h16.66v19H0z"/></clipPath></defs><title>wallet-orange</title><path d="M15.2 5.21a.59.59 0 0 0-.58-.53h-2.93V3.51a3.51 3.51 0 0 0-7 0v1.17H1.75a.59.59 0 0 0-.58.53L0 18.07a.59.59 0 0 0 .58.64h15.2a.59.59 0 0 0 .58-.64zm-9.35-1.7a2.34 2.34 0 0 1 4.68 0v1.17H5.85zm-4.62 14L2.29 5.85h2.39v1.33a1.17 1.17 0 1 0 1.17 0V5.85h4.68v1.33a1.17 1.17 0 1 0 1.17 0V5.85h2.39l1.06 11.69zm0 0" class="cls-2"/></svg>